<svg xmlns="http://www.w3.org/2000/svg" width="128" height="128" viewBox="0 0 128 128">
    <g fill="none" fill-rule="evenodd">
        <circle cx="64" cy="64" r="64" fill="#558DD6" fill-rule="nonzero"/>
        <g stroke="#FFF" stroke-linejoin="round" stroke-width="2">
            <path d="M86.705 83.35v10.296l-1.218-.272a96.21 96.21 0 0 0-41.986 0l-1.218.272V83.35l.782-.175a98.21 98.21 0 0 1 42.858 0l.782.175z"/>
            <path stroke-linecap="round" d="M41.819 76.56V59.07c-7.58-2.52-10.347-7.435-8.301-14.745 4.173-9.994 13.59-6.46 17.941-3.319 0 0 2.103-9.095 13.058-9.095 6.151 0 10.509 3.031 13.073 9.095 7.556-4.366 13.004-4.266 16.343.301 6.192 8.325-1.944 16.601-6.679 17.762.01 2.031.01 7.861 0 17.49"/>
        </g>
    </g>
</svg>
