<svg xmlns="http://www.w3.org/2000/svg" xmlns:xlink="http://www.w3.org/1999/xlink" width="128" height="128" viewBox="0 0 128 128">
    <defs>
        <path id="a" d="M63.794 44C48.932 44 35.964 52.039 29 64a40.171 40.171 0 0 0 34.794 20c14.863 0 27.831-8.039 34.795-20-6.964-11.961-19.932-20-34.795-20z"/>
    </defs>
    <g fill="none" fill-rule="nonzero">
        <circle cx="64" cy="64" r="64" fill="#558DD6"/>
        <g stroke-linejoin="round">
            <use fill="#558DD6" fill-rule="evenodd" xlink:href="#a"/>
            <path stroke="#FFF" stroke-width="2" d="M63.794 43a41.195 41.195 0 0 1 35.66 20.497l.292.503-.293.503A41.195 41.195 0 0 1 63.794 85a41.166 41.166 0 0 1-35.659-20.498l-.292-.503.293-.502A41.195 41.195 0 0 1 63.794 43z"/>
        </g>
        <path fill="#558DD6" stroke="#FFF" stroke-width="9" d="M63.931 53.863h-.28c-5.406.14-9.788 4.579-9.788 10.045 0 5.56 4.475 10.044 10.022 10.044 5.546 0 10.067-4.485 10.067-10.044 0-5.56-4.474-10.045-10.02-10.045z"/>
    </g>
</svg>
